HIERARCHY
ROOT Hips
{
	OFFSET -3.958830 18.904000 13.208200
	CHANNELS 6 Xposition Yposition Zposition Zrotation Yrotation Xrotation 
	JOINT LHipJoint
	{
		OFFSET 0.000000 0.000000 0.000000
		CHANNELS 3 Zrotation Yrotation Xrotation
		JOINT LeftUpLeg
		{
			OFFSET 1.800000 -1.400000 0.085000
			CHANNELS 3 Zrotation Yrotation Xrotation
			JOINT LeftLeg
			{
				OFFSET 2.215000 -6.000000 0.000000
				CHANNELS 3 Zrotation Yrotation Xrotation
				JOINT LeftFoot
				{
					OFFSET 2.500000 -6.900000 0.000000
					CHANNELS 3 Zrotation Yrotation Xrotation
					JOINT LeftToeBase
					{
						OFFSET 0.200000 -0.500000 1.950000
						CHANNELS 3 Zrotation Yrotation Xrotation
						End Site
						{
							OFFSET 0.000000 0.000000 0.000000
						}
					}
				}
			}
		}
	}
	JOINT RHipJoint
	{
		OFFSET 0.000000 0.000000 0.000000
		CHANNELS 3 Zrotation Yrotation Xrotation
		JOINT RightUpLeg
		{
			OFFSET -1.800000 -1.400000 0.085000
			CHANNELS 3 Zrotation Yrotation Xrotation
			JOINT RightLeg
			{
				OFFSET -2.215000 -6.000000 0.000000
				CHANNELS 3 Zrotation Yrotation Xrotation
				JOINT RightFoot
				{
					OFFSET -2.500000 -6.900000 0.000000
					CHANNELS 3 Zrotation Yrotation Xrotation
					JOINT RightToeBase
					{
						OFFSET -0.200000 -0.500000 1.950000
						CHANNELS 3 Zrotation Yrotation Xrotation
						End Site
						{
							OFFSET 0.000000 0.000000 0.000000
						}
					}
				}
			}
		}
	}
	JOINT LowerBack
	{
		OFFSET 0.000000 0.000000 0.000000
		CHANNELS 3 Zrotation Yrotation Xrotation
		JOINT Spine
		{
			OFFSET -0.087000 1.940000 -0.288900
			CHANNELS 3 Zrotation Yrotation Xrotation
			JOINT Spine1
			{
				OFFSET 0.000000 1.950000 0.060000
				CHANNELS 3 Zrotation Yrotation Xrotation
				JOINT Neck
				{
					OFFSET 0.000000 0.000000 0.000000
					CHANNELS 3 Zrotation Yrotation Xrotation
					JOINT Neck1
					{
						OFFSET 0.000000 1.600000 0.340000
						CHANNELS 3 Zrotation Yrotation Xrotation
						JOINT Head
						{
							OFFSET 0.000000 1.667000 -0.240000
							CHANNELS 3 Zrotation Yrotation Xrotation
							End Site
							{
								OFFSET 0.000000 0.000000 0.000000
							}
						}
					}
				}
				JOINT LeftShoulder
				{
					OFFSET 0.000000 0.000000 0.000000
					CHANNELS 3 Zrotation Yrotation Xrotation
					JOINT LeftArm
					{
						OFFSET 2.700000 1.550000 -0.730000
						CHANNELS 3 Zrotation Yrotation Xrotation
						JOINT LeftForeArm
						{
							OFFSET 5.450000 0.000000 0.000000
							CHANNELS 3 Zrotation Yrotation Xrotation
							JOINT LeftHand
							{
								OFFSET 3.450000 0.000000 0.000000
								CHANNELS 3 Zrotation Yrotation Xrotation
								JOINT LeftHandIndex1
								{
									OFFSET 0.750000 0.000000 0.000000
									CHANNELS 3 Zrotation Yrotation Xrotation
									End Site
									{
										OFFSET 0.000000 0.000000 0.000000
									}
								}
							}
						}
					}
				}
				JOINT RightShoulder
				{
					OFFSET 0.000000 0.000000 0.000000
					CHANNELS 3 Zrotation Yrotation Xrotation
					JOINT RightArm
					{
						OFFSET -2.700000 1.550000 -0.730000
						CHANNELS 3 Zrotation Yrotation Xrotation
						JOINT RightForeArm
						{
							OFFSET -5.450000 0.000000 0.000000
							CHANNELS 3 Zrotation Yrotation Xrotation
							JOINT RightHand
							{
								OFFSET -3.450000 0.000000 0.000000
								CHANNELS 3 Zrotation Yrotation Xrotation
								JOINT RightHandIndex1
								{
									OFFSET -0.750000 0.000000 0.000000
									CHANNELS 3 Zrotation Yrotation Xrotation
									End Site
									{
										OFFSET 0.000000 0.000000 0.000000
									}
								}
							}
						}
					}
				}
			}
		}
	}
}
MOTION
Frames: 5
Frame Time: 0.016667
18.374940 17.418310 -18.349920 -2.027886 -30.403878 -4.566443 -16.228879 12.075653 6.866014 13.434649 -5.165779 15.609009 -18.732968 -2.897103 -36.994197 -0.499063 8.121360 2.273383 -0.046600 -0.689970 -0.408820 17.564801 -8.261404 1.964426 -10.057490 -1.099792 -13.860956 10.446892 -4.125592 1.324364 0.057445 -2.529130 4.337549 -0.028040 0.699480 -0.924990 -0.957877 -5.331227 -10.460014 1.526772 -3.246792 22.358757 -0.152845 -0.978535 7.723978 8.588376 -2.747759 -20.080146 -19.580782 -6.697577 67.368983 20.377020 -29.293210 -29.248380 -43.450185 -26.651768 4.497177 -27.257817 -33.198449 1.278350 22.646835 8.728791 -1.685787 -3.871966 1.459629 1.704710 -0.210990 -0.712100 0.177010 28.751579 30.783428 20.138768 28.353762 -37.463203 -18.908896 -52.702020 8.983226 -6.130747 1.545543 -0.920564 -1.476760 1.516020 0.701550 -0.647840 
18.307210 17.443550 -18.280140 -2.277472 -30.823825 -3.314635 -16.284079 12.202575 6.714982 13.902890 -4.739797 14.818187 -18.745921 -2.181764 -34.958047 -0.433335 7.974625 2.255418 0.012520 -0.542790 -0.437310 17.493924 -8.209788 2.082408 -9.410300 -0.893557 -13.424199 10.589219 -3.871512 -0.182015 0.004796 -2.537108 4.333227 0.022040 0.562560 -0.861770 -0.760745 -5.485979 -10.474047 1.498928 -3.199833 20.884109 0.618765 -0.821176 3.311342 9.876284 -3.509480 -18.666215 -20.693239 -5.601259 70.093577 19.174540 -28.990340 -30.705270 -45.715299 -21.711178 1.943083 -30.718592 -30.210227 1.045231 23.883823 3.978992 -2.385366 -3.679843 1.530201 1.678840 -0.241320 -0.602320 0.185890 28.920734 27.123901 19.877539 25.019442 -37.863749 -15.209062 -49.298159 8.769426 -4.284573 1.548869 -0.900893 -1.352640 1.383420 0.626800 -0.618100 
18.175150 17.494510 -18.175870 -1.792945 -31.988966 -2.492505 -16.054498 12.494498 6.225422 13.903700 -3.406637 13.694847 -18.866232 -0.250651 -29.164526 -0.496625 7.751898 2.286457 0.024270 -0.581420 -0.379630 17.594362 -8.523968 2.389882 -9.305557 -0.877997 -13.086418 10.991547 -3.748554 -1.779956 -0.045546 -2.595362 4.278280 -0.050190 0.483700 -0.864750 -1.147779 -5.218324 -10.216644 3.348516 -3.942453 19.417868 -0.266532 -0.443348 -5.786640 9.330123 -5.750904 -15.954683 -25.177937 -0.650581 76.596452 21.051110 -29.061650 -28.598110 -44.805959 -12.435040 -3.199693 -36.199964 -23.840726 1.707754 21.494882 -3.210478 -3.391943 -3.477771 1.514233 1.729720 -0.314480 -0.577970 0.143450 29.403265 18.475732 18.071639 19.945028 -39.746804 -10.822810 -45.659955 18.359782 -5.462263 1.494367 -0.752425 -1.315570 1.290130 0.613810 -0.641700 
18.026390 17.553870 -18.031030 -3.007068 -34.408375 1.222680 -15.745144 13.072194 5.616364 14.132386 -2.070946 10.695898 -17.037651 2.291842 -21.506221 -0.608165 7.272743 2.467486 -0.047110 -0.709290 -0.409110 17.736670 -8.786588 2.820366 -7.218879 -0.191023 -14.532764 11.181536 -3.340870 -3.532174 -0.011766 -2.421556 4.350897 -0.173660 0.471040 -0.865920 -1.730531 -5.364009 -9.916699 9.669700 -5.366760 16.482064 -2.800048 -0.133232 -17.787890 8.912901 -9.750191 -13.483191 -35.045558 6.822256 78.155276 20.473060 -29.833560 -24.625870 -40.248658 1.384192 -8.106240 -41.728468 -14.674634 1.710559 15.278642 -12.521657 -3.751290 -3.347127 1.464216 1.730960 -0.345600 -0.593230 0.129950 25.285012 7.796611 14.877292 13.983162 -40.452811 -6.651727 -43.275028 31.805633 -7.307581 1.516738 -0.609590 -1.291270 1.217530 0.624540 -0.628110 
17.852900 17.591610 -17.901020 -3.555757 -37.014131 4.692264 -15.321124 13.920285 4.608969 13.305305 -0.771828 6.807394 -12.885713 4.998674 -9.404630 -0.847002 6.330501 2.828797 -0.178750 -0.865860 -0.499270 17.945515 -9.273637 3.284831 -5.564184 0.580610 -16.723021 10.981421 -3.047819 -4.321317 0.093357 -2.270408 4.447783 -0.300690 0.513050 -0.864660 -2.543052 -5.357925 -9.246973 16.022003 -7.556725 12.882791 -6.796630 -1.863887 -26.392972 7.063503 -12.442120 -12.560729 -41.424929 11.410090 72.793934 17.701450 -28.554900 -17.169950 -29.751753 13.341518 -7.494553 -42.896344 -0.544266 -0.233596 4.943690 -31.662452 -1.366660 -3.228597 1.571293 1.653150 -0.292200 -0.655540 0.118410 17.059162 -0.677344 11.977462 13.033645 -37.337534 -5.152659 -34.635025 50.791142 -9.073298 1.479868 -0.638937 -1.275880 1.127870 0.641480 -0.600670 
